<svg xmlns="http://www.w3.org/2000/svg" viewBox="0 0 512 512" role="img" aria-label="Kasir SaaS">
  <defs>
    <linearGradient id="appBlue" x1="88" y1="56" x2="424" y2="456" gradientUnits="userSpaceOnUse">
      <stop offset="0" stop-color="#2e31c8"/>
      <stop offset="0.58" stop-color="#126fd6"/>
      <stop offset="1" stop-color="#0bb6d1"/>
    </linearGradient>
  </defs>
  <rect width="512" height="512" rx="104" fill="url(#appBlue)"/>
  <rect x="126" y="96" width="260" height="320" rx="44" fill="#ffffff"/>
  <rect x="160" y="132" width="192" height="78" rx="14" fill="#e4f4ff"/>
  <rect x="182" y="157" width="148" height="20" rx="10" fill="#126fd6"/>
  <rect x="160" y="244" width="52" height="52" rx="12" fill="#126fd6"/>
  <rect x="230" y="244" width="52" height="52" rx="12" fill="#0bb6d1"/>
  <rect x="300" y="244" width="52" height="52" rx="12" fill="#2e31c8"/>
  <rect x="160" y="316" width="52" height="52" rx="12" fill="#0bb6d1"/>
  <rect x="230" y="316" width="122" height="52" rx="12" fill="#126fd6"/>
  <path d="M385 108c0-16 13-29 29-29h14v14c0 16-13 29-29 29h-14v-14Z" fill="#ffffff" opacity="0.92"/>
</svg>
