<svg xmlns="http://www.w3.org/2000/svg" width="390" height="844" viewBox="0 0 390 844">
  <defs>
    <linearGradient id="blue" x1="28" y1="40" x2="360" y2="350" gradientUnits="userSpaceOnUse">
      <stop stop-color="#2e31c8"/>
      <stop offset=".58" stop-color="#126fd6"/>
      <stop offset="1" stop-color="#0bb6d1"/>
    </linearGradient>
    <filter id="shadow" x="-20%" y="-20%" width="140%" height="140%">
      <feDropShadow dx="0" dy="14" stdDeviation="15" flood-color="#2455c8" flood-opacity=".18"/>
    </filter>
  </defs>
  <rect width="390" height="844" fill="#eef7ff"/>
  <rect x="12" y="16" width="366" height="812" rx="22" fill="#fff" filter="url(#shadow)"/>
  <rect x="28" y="28" width="334" height="308" rx="24" fill="url(#blue)"/>
  <rect x="129" y="64" width="132" height="40" rx="20" fill="#fff" stroke="#dceaf7"/>
  <text x="195" y="90" text-anchor="middle" font-family="Segoe UI, Arial" font-size="13" font-weight="800" fill="#047857">Mode demo aktif</text>
  <rect x="151" y="126" width="88" height="88" rx="24" fill="#fff" opacity=".2"/>
  <text x="195" y="183" text-anchor="middle" font-family="Segoe UI, Arial" font-size="35" font-weight="900" fill="#fff">TC</text>
  <text x="195" y="258" text-anchor="middle" font-family="Segoe UI, Arial" font-size="32" font-weight="900" fill="#fff">TOKO CONTOH</text>
  <text x="195" y="291" text-anchor="middle" font-family="Segoe UI, Arial" font-size="17" fill="#e7f7ff">Kelola Keuangan dan Pelanggan</text>
  <text x="195" y="315" text-anchor="middle" font-family="Segoe UI, Arial" font-size="17" fill="#e7f7ff">dalam satu genggaman</text>
  <text x="195" y="370" text-anchor="middle" font-family="Segoe UI, Arial" font-size="24" font-weight="850" fill="#263447">Masuk Sebagai</text>
  <rect x="32" y="398" width="154" height="78" rx="18" fill="#eef9ff" stroke="#0bb6d1" stroke-width="2"/>
  <text x="109" y="446" text-anchor="middle" font-family="Segoe UI, Arial" font-size="24" font-weight="850" fill="#126fd6">Owner</text>
  <rect x="204" y="398" width="154" height="78" rx="18" fill="#fff" stroke="#dbe7f3" stroke-width="2"/>
  <text x="281" y="446" text-anchor="middle" font-family="Segoe UI, Arial" font-size="24" font-weight="850" fill="#263447">Karyawan</text>
  <text x="32" y="521" font-family="Segoe UI, Arial" font-size="14" font-weight="800" fill="#7b8798">ID Owner</text>
  <rect x="32" y="535" width="326" height="58" rx="18" fill="#fff" stroke="#dbe7f3"/>
  <text x="54" y="571" font-family="Segoe UI, Arial" font-size="16" fill="#9aa7b8">owner@kasir.local</text>
  <text x="32" y="631" font-family="Segoe UI, Arial" font-size="14" font-weight="800" fill="#7b8798">Password</text>
  <rect x="32" y="645" width="326" height="58" rx="18" fill="#fff" stroke="#dbe7f3"/>
  <text x="54" y="682" font-family="Segoe UI, Arial" font-size="18" fill="#9aa7b8">••••••••</text>
  <rect x="32" y="738" width="326" height="64" rx="20" fill="#16a9df"/>
  <text x="195" y="778" text-anchor="middle" font-family="Segoe UI, Arial" font-size="22" font-weight="900" fill="#fff">Masuk Sistem</text>
</svg>
